<?xml version="1.0"?>
<svg xmlns="http://www.w3.org/2000/svg" viewBox="0 0 512 512" width="32px" height="32px"><g><g id="outline"><path d="M429.963,385.636a32.874,32.874,0,0,0-40.328-7.17l-67.1-77.58c-.069-.08-.14-.159-.213-.238A40.147,40.147,0,0,0,293.132,288H235V272h63.548a24.2,24.2,0,0,0,24.425-22.851,23.812,23.812,0,0,0-6.607-17.714A24.11,24.11,0,0,0,299,224H235V202.719a50.658,50.658,0,0,0,18.937-42.28,51.292,51.292,0,0,0-48.924-48.4A51,51,0,0,0,171,202.714V306a46.053,46.053,0,0,0,46,46h75.525l77.628,83.118c.063.067.125.132.19.2a16,16,0,0,0,21.245,1.231L434,402.967a8,8,0,0,0,1.04-11.558ZM381.66,424l-79.813-85.458A8,8,0,0,0,296,336H217a30.034,30.034,0,0,1-30-30V198.684a8,8,0,0,0-3.528-6.634A35,35,0,0,1,202.993,128q.7,0,1.4.027a35.182,35.182,0,0,1,33.56,33.2,34.826,34.826,0,0,1-15.427,30.825A8,8,0,0,0,219,198.684V232a8,8,0,0,0,8,8h72a8,8,0,0,1,7.99,8.4,8.326,8.326,0,0,1-8.442,7.6H227a8,8,0,0,0-8,8v32a8,8,0,0,0,8,8h66.132a24.091,24.091,0,0,1,17.411,7.481L382.3,394.438a8,8,0,0,0,11.52.6,16.831,16.831,0,0,1,23.637.62Z" data-original="#000000" class="active-path" data-old_color="#000000" fill="#485f80"/><path d="M333.5,414.247l-26.063-19.338a8,8,0,0,0-11.986,2.976A88.009,88.009,0,1,1,156.721,294.963a8,8,0,0,0-.624-12.336l-26.061-19.335a8,8,0,0,0-10.437.781A135.136,135.136,0,0,0,80,360c0,74.99,61.01,136,136,136a135.943,135.943,0,0,0,119.771-71.53A8,8,0,0,0,333.5,414.247ZM216,480a120,120,0,0,1-89.783-199.619l12.911,9.579A104,104,0,1,0,305.335,413.274l12.907,9.578A119.932,119.932,0,0,1,216,480Z" data-original="#000000" class="active-path" data-old_color="#000000" fill="#485f80"/><path d="M245.462,79.887l11.955-10.635A72.959,72.959,0,0,0,154.374,63.2L165.009,75.15a56.957,56.957,0,0,1,80.453,4.737Z" data-original="#000000" class="active-path" data-old_color="#000000" fill="#b8e7df"/><path d="M170.98,86.7l10.633,11.955a31.975,31.975,0,0,1,45.167,2.661l11.955-10.634A47.974,47.974,0,0,0,170.98,86.7Z" data-original="#000000" class="active-path" data-old_color="#000000" fill="#485f80"/><path d="M262.33,61.057,274.219,50.35a95.987,95.987,0,0,0-135.573-7.132l10.708,11.888A79.988,79.988,0,0,1,262.33,61.057Z" data-original="#000000" class="active-path" data-old_color="#000000" fill="#485f80"/></g></g> </svg>